# xmcd
#
# Track frame offsets:
#	150
#	11183
#	22113
#	34067
#	45625
#	58710
#	71108
#	81901
#	92315
#	106861
#	118656
#	130273
#	141385
#	152710
#	163642
#	174733
#	180250
#	192770
#	207429
#	223193
#
# Disc length: 3173 seconds
#
# Revision: 3
# Processed by: cddbd v1.5.2PL0 Copyright (c) Steve Scherf et al.
# Submitted via: audiograbber 1.83.01
#
DISCID=1e0c6314
DTITLE=Various Artist - 100 Country Greats (Disc:4)
DYEAR=2006
DGENRE=Country
TTITLE0=Willie Nelson - Who Do I Know In Dallas
TTITLE1=Jonny Cash and The Tennessee Two - Cry! Cry! Cry!
TTITLE2=George Jones - Let Him Know
TTITLE3=Lynn Anderson - Listen To A Country Song
TTITLE4=Slim Whitman - Red Sails In The Sunset
TTITLE5=Billie Jo Spears - Sunshine
TTITLE6=Kenny Rogers - We All Got To Help Each Other
TTITLE7=Waylon Jennings - Money (That's What I Want)
TTITLE8=Frankie Laine - Jealousy (Jalousie)
TTITLE9=Billie Jo Spears - Ease The Want In Me
TTITLE10=Hank Williams - Kaw-Liga
TTITLE11=Slim Whitman - The Wayward Wind
TTITLE12=Marty Robbins - Maybelline
TTITLE13=Lynn Anderson - Someday Soon
TTITLE14=Patsy Cline - A Stranger In My Arms
TTITLE15=Willie Nelson - Darkness On The Face Of The Earth
TTITLE16=Billie Jo Spears - He's On The Run Again
TTITLE17=Lynn Anderson - Faithless Love
TTITLE18=Kenny Rogers - Good Lady Of Toronto
TTITLE19=Frankie Laine - Jezabel
EXTD=
EXTT0=
EXTT1=
EXTT2=
EXTT3=
EXTT4=
EXTT5=
EXTT6=
EXTT7=
EXTT8=
EXTT9=
EXTT10=
EXTT11=
EXTT12=
EXTT13=
EXTT14=
EXTT15=
EXTT16=
EXTT17=
EXTT18=
EXTT19=
PLAYORDER=
